<?xml version="1.0" encoding="UTF-8"?>
<!DOCTYPE svg PUBLIC "-//W3C//DTD SVG 1.1//EN" "http://www.w3.org/Graphics/SVG/1.1/DTD/svg11.dtd">
<svg xmlns="http://www.w3.org/2000/svg" version="1.1" width="32px" height="32px" style="shape-rendering:geometricPrecision; text-rendering:geometricPrecision; image-rendering:optimizeQuality; fill-rule:evenodd; clip-rule:evenodd" xmlns:xlink="http://www.w3.org/1999/xlink">
<g><path style="opacity:1" fill="#f8f8f8" d="M -0.5,-0.5 C 10.1667,-0.5 20.8333,-0.5 31.5,-0.5C 31.5,1.83333 31.5,4.16667 31.5,6.5C 20.8333,6.5 10.1667,6.5 -0.5,6.5C -0.5,4.16667 -0.5,1.83333 -0.5,-0.5 Z"/></g>
<g><path style="opacity:1" fill="#211821" d="M -0.5,6.5 C 10.1667,6.5 20.8333,6.5 31.5,6.5C 31.5,12.5 31.5,18.5 31.5,24.5C 20.8333,24.5 10.1667,24.5 -0.5,24.5C -0.5,18.5 -0.5,12.5 -0.5,6.5 Z"/></g>
<g><path style="opacity:1" fill="#c6985d" d="M 2.5,17.5 C 2.5,16.8333 2.5,16.1667 2.5,15.5C 2.79106,14.3509 3.62439,13.6842 5,13.5C 5.83333,13.8333 6.66667,14.1667 7.5,14.5C 6.16667,15.8333 6.16667,17.1667 7.5,18.5C 6.66667,18.8333 5.83333,19.1667 5,19.5C 3.62439,19.3158 2.79106,18.6491 2.5,17.5 Z"/></g>
<g><path style="opacity:1" fill="#a25c38" d="M 14.5,11.5 C 15.1667,11.5 15.8333,11.5 16.5,11.5C 16.5,14.1667 16.5,16.8333 16.5,19.5C 15.8333,19.5 15.1667,19.5 14.5,19.5C 14.5,16.8333 14.5,14.1667 14.5,11.5 Z"/></g>
<g><path style="opacity:1" fill="#83472a" d="M 9.5,11.5 C 9.68155,13.5914 9.34822,15.5914 8.5,17.5C 9.19251,18.5178 9.85917,19.5178 10.5,20.5C 7.5,20.5 4.5,20.5 1.5,20.5C 1.26269,19.209 1.59603,18.209 2.5,17.5C 2.79106,18.6491 3.62439,19.3158 5,19.5C 5.83333,19.1667 6.66667,18.8333 7.5,18.5C 6.16667,17.1667 6.16667,15.8333 7.5,14.5C 6.66667,14.1667 5.83333,13.8333 5,13.5C 3.62439,13.6842 2.79106,14.3509 2.5,15.5C 1.59603,14.791 1.26269,13.791 1.5,12.5C 4.27884,12.7214 6.94551,12.388 9.5,11.5 Z"/></g>
<g><path style="opacity:1" fill="#c5965d" d="M 27.5,20.5 C 25.901,20.7678 24.5676,20.4345 23.5,19.5C 23.043,16.976 23.043,14.3093 23.5,11.5C 24.8845,10.1991 26.3845,10.1991 28,11.5C 28.8045,14.6965 28.6378,17.6965 27.5,20.5 Z"/></g>
<g><path style="opacity:1" fill="#c89b63" d="M 14.5,11.5 C 14.5,14.1667 14.5,16.8333 14.5,19.5C 13.2921,20.2341 11.9587,20.5674 10.5,20.5C 9.85917,19.5178 9.19251,18.5178 8.5,17.5C 9.34822,15.5914 9.68155,13.5914 9.5,11.5C 11.0496,10.2801 12.7163,10.2801 14.5,11.5 Z"/></g>
<g><path style="opacity:1" fill="#c79a65" d="M 21.5,11.5 C 21.5,14.1667 21.5,16.8333 21.5,19.5C 19.7163,20.7199 18.0496,20.7199 16.5,19.5C 16.5,16.8333 16.5,14.1667 16.5,11.5C 18.0496,10.2801 19.7163,10.2801 21.5,11.5 Z"/></g>
<g><path style="opacity:1" fill="#a05a33" d="M 21.5,11.5 C 22.1667,11.5 22.8333,11.5 23.5,11.5C 23.043,14.3093 23.043,16.976 23.5,19.5C 22.8333,19.5 22.1667,19.5 21.5,19.5C 21.5,16.8333 21.5,14.1667 21.5,11.5 Z"/></g>
<g><path style="opacity:1" fill="#320c12" d="M 14.5,19.5 C 15.1667,19.5 15.8333,19.5 16.5,19.5C 18.0496,20.7199 19.7163,20.7199 21.5,19.5C 22.1667,19.5 22.8333,19.5 23.5,19.5C 24.5676,20.4345 25.901,20.7678 27.5,20.5C 18.8333,21.8333 10.1667,21.8333 1.5,20.5C 4.5,20.5 7.5,20.5 10.5,20.5C 11.9587,20.5674 13.2921,20.2341 14.5,19.5 Z"/></g>
<g><path style="opacity:1" fill="#fbfbfb" d="M -0.5,24.5 C 10.1667,24.5 20.8333,24.5 31.5,24.5C 31.5,26.8333 31.5,29.1667 31.5,31.5C 20.8333,31.5 10.1667,31.5 -0.5,31.5C -0.5,29.1667 -0.5,26.8333 -0.5,24.5 Z"/></g>
</svg>
